<svg xmlns="http://www.w3.org/2000/svg" width="24" height="24" viewBox="0 0 24 24" version="1.1"><path d="M 1.571 7.571 C 0.707 8.436, 0 9.786, 0 10.571 C 0 12.287, 3.135 12.465, 4.758 10.842 C 5.634 9.966, 6.302 10.005, 7.508 11.006 C 8.846 12.117, 9.372 12.052, 10.800 10.603 C 12.401 8.979, 12.387 8.794, 10.559 7.439 C 7.999 5.542, 3.535 5.607, 1.571 7.571 M 12.910 13.608 C 11.776 14.975, 11.862 15.426, 13.479 16.608 C 17.340 19.431, 24 17.418, 24 13.429 C 24 11.692, 20.858 11.542, 19.200 13.200 C 18.267 14.133, 17.733 14.133, 16.800 13.200 C 15.211 11.611, 14.506 11.685, 12.910 13.608" stroke="none" fill="#048cdc" fill-rule="evenodd"/><path d="M 11 10 C 6.671 14.160, 5.539 14.682, 4.500 13 C 3.555 11.472, -0 11.810, 0 13.429 C 0 15.758, 2.938 18, 5.990 18 C 7.951 18, 10.132 16.755, 13 14 C 17.329 9.840, 18.461 9.318, 19.500 11 C 19.840 11.550, 20.991 12, 22.059 12 C 23.127 12, 24 12.525, 24 13.167 C 24 13.808, 24.266 14.067, 24.591 13.742 C 25.433 12.901, 24.140 9.283, 22.363 7.506 C 19.632 4.774, 15.493 5.683, 11 10 M 0.079 13.583 C 0.127 14.748, 0.364 14.985, 0.683 14.188 C 0.972 13.466, 0.936 12.603, 0.604 12.271 C 0.272 11.939, 0.036 12.529, 0.079 13.583" stroke="none" fill="#27b0ea" fill-rule="evenodd"/></svg>